<svg width="165" height="45" viewBox="0 0 165 45" fill="none" xmlns="http://www.w3.org/2000/svg">
<path d="M162.251 16.4802C161.403 15.6385 160.402 14.9717 159.271 14.5016C158.14 14.017 156.92 13.7728 155.644 13.7728C154.461 13.7728 153.304 13.9842 152.211 14.4069C151.128 14.815 150.146 15.4089 149.287 16.1742L149.004 16.4256L147.033 14.1919H146.229V32.4879C146.229 33.7888 147.312 34.8492 148.64 34.8492C149.968 34.8492 151.05 33.7888 151.05 32.4879V22.9919C151.05 22.3834 151.169 21.804 151.407 21.2683C151.642 20.7254 151.969 20.2408 152.382 19.8363C152.795 19.4318 153.286 19.1111 153.848 18.8779C154.409 18.6484 155.012 18.5281 155.644 18.5281C156.262 18.5281 156.853 18.6447 157.404 18.8779C157.947 19.1075 158.434 19.4318 158.843 19.8326C159.256 20.2371 159.584 20.7181 159.822 21.2683C160.056 21.804 160.179 22.3834 160.179 22.9883V32.4879C160.179 33.7888 161.261 34.8492 162.589 34.8492C163.917 34.8492 165 33.7888 165 32.4879V22.9919C165 21.7311 164.751 20.5286 164.256 19.4245C163.769 18.2949 163.095 17.3074 162.251 16.4802Z" fill="black"/>
<path d="M136.204 15.3616C135.638 14.9607 135.032 14.6109 134.403 14.3121C133.775 14.017 133.12 13.7838 132.454 13.6161C131.796 13.4522 131.119 13.3683 130.445 13.3683C128.965 13.3683 127.555 13.6416 126.246 14.1773C124.951 14.702 123.798 15.4563 122.816 16.4147C121.849 17.373 121.075 18.5427 120.513 19.8909C119.948 21.2246 119.665 22.7186 119.665 24.3256C119.665 26.0528 119.951 27.6124 120.513 28.9606C121.075 30.3052 121.849 31.4603 122.816 32.3932C123.79 33.3114 124.944 34.0256 126.234 34.5103C127.544 34.9986 128.961 35.2464 130.445 35.2464C131.115 35.2464 131.785 35.1625 132.432 34.9986C133.098 34.8309 133.756 34.605 134.388 34.3208C135.017 34.0256 135.62 33.6795 136.185 33.2932C136.769 32.8924 137.324 32.4588 137.841 32.0033L138.149 31.7336L140.441 34.8455H141.226V14.2283H140.426L138.123 16.9321L137.837 16.6661C137.331 16.1997 136.784 15.7587 136.204 15.3616ZM135.884 26.6431C135.583 27.3719 135.162 28.0314 134.634 28.6072C134.102 29.172 133.466 29.6347 132.752 29.9882C132.034 30.3307 131.26 30.5056 130.445 30.5056C129.642 30.5056 128.872 30.3708 128.15 30.1012C127.436 29.8315 126.804 29.427 126.264 28.8987C125.74 28.3703 125.319 27.718 125.018 26.9565C124.717 26.184 124.564 25.3021 124.564 24.3292C124.564 23.3563 124.717 22.4781 125.018 21.7202C125.319 20.9477 125.736 20.2881 126.26 19.7598C126.8 19.2314 127.436 18.8269 128.146 18.5573C128.868 18.2876 129.638 18.1528 130.442 18.1528C131.26 18.1528 132.037 18.335 132.752 18.6921C133.466 19.0273 134.098 19.4938 134.634 20.0695C135.162 20.627 135.583 21.2902 135.888 22.0372C136.2 22.766 136.364 23.5385 136.364 24.3292C136.36 25.1199 136.2 25.8997 135.884 26.6431Z" fill="black"/>
<path d="M111.477 22.7369L115.64 17.6135C116.153 16.9832 116.25 16.1378 115.893 15.409C115.536 14.6802 114.799 14.2284 113.973 14.2284C113.319 14.2284 112.709 14.5162 112.303 15.0227L104.093 25.2184V12.1331C104.093 10.8213 103.003 9.75 101.66 9.75C100.317 9.75 99.2275 10.8177 99.2275 12.1331V32.9945C99.2275 34.0184 100.076 34.8492 101.121 34.8492C101.694 34.8492 102.233 34.5978 102.594 34.1605L104.171 32.2475L108.382 26.778L112.292 33.6431C112.716 34.3864 113.52 34.8492 114.39 34.8492C115.257 34.8492 116.031 34.4119 116.466 33.6795C116.901 32.9471 116.905 32.0689 116.477 31.3328L111.477 22.7369Z" fill="black"/>
<path d="M92.0332 16.3782C91.066 15.4199 89.9165 14.6729 88.6108 14.1627C87.3125 13.638 85.899 13.3683 84.4073 13.3683C82.9304 13.3683 81.5168 13.6489 80.2111 14.1992C78.9166 14.7494 77.7634 15.5219 76.7814 16.4985C75.8142 17.4605 75.0367 18.6229 74.475 19.9565C73.9133 21.2902 73.6268 22.7623 73.6268 24.3292C73.6268 25.8706 73.9133 27.3281 74.475 28.6618C75.0367 29.9846 75.8142 31.147 76.7851 32.1235C77.7634 33.0819 78.9203 33.858 80.2186 34.4192C81.5206 34.9694 82.9341 35.2464 84.411 35.2464C85.9027 35.2464 87.3125 34.9658 88.6071 34.4155C89.9165 33.8507 91.0697 33.0782 92.0369 32.1162C93.0041 31.1433 93.7815 29.9809 94.3432 28.6582C94.905 27.3245 95.1914 25.8669 95.1914 24.3256C95.1914 22.6785 94.905 21.1663 94.3432 19.8326C93.7741 18.488 93.0003 17.3256 92.0332 16.3782ZM89.8495 26.8435C89.5482 27.6014 89.1241 28.261 88.5885 28.8003C88.0528 29.3396 87.413 29.7623 86.6913 30.0611C85.9845 30.3599 85.2145 30.5093 84.4073 30.5093C83.5963 30.5093 82.8188 30.3526 82.0972 30.0392C81.3866 29.7113 80.758 29.2667 80.2223 28.7165C79.7015 28.1626 79.2849 27.5067 78.9836 26.7633C78.6822 26.02 78.5297 25.2001 78.5297 24.3329C78.5297 23.4109 78.6822 22.5656 78.9836 21.8222C79.2849 21.0643 79.7015 20.4047 80.2223 19.8691C80.758 19.3152 81.3941 18.8889 82.1046 18.6046C83.5442 18.0107 85.274 18.0107 86.695 18.6083C87.413 18.8889 88.0528 19.3152 88.5922 19.8691C89.1242 20.4047 89.5482 21.0643 89.8533 21.8259C90.1657 22.5656 90.3257 23.4109 90.3257 24.3365C90.3257 25.2365 90.1657 26.0819 89.8495 26.8435Z" fill="black"/>
<path d="M67.3921 9.75C66.053 9.75 64.9593 10.8177 64.9593 12.1331V16.4766L64.2823 15.511C64.0107 15.1248 63.6722 14.7932 63.2779 14.5272C62.8724 14.2539 62.4297 14.0316 61.9573 13.8713C61.4849 13.6927 60.9976 13.5652 60.4954 13.4886C60.0006 13.4121 59.5096 13.372 59.0446 13.372C57.5678 13.372 56.1542 13.6526 54.8485 14.2029C53.5539 14.7531 52.4007 15.5256 51.4187 16.5022C50.4515 17.4751 49.674 18.6448 49.1123 19.9784C48.5506 21.3085 48.2642 22.7733 48.2642 24.3293C48.2642 25.8961 48.5506 27.3683 49.1123 28.702C49.6777 30.0247 50.4515 31.1871 51.4224 32.1637C52.4007 33.122 53.5577 33.8909 54.8522 34.4411C56.1579 34.9768 57.5678 35.25 59.0483 35.25C59.7216 35.25 60.3875 35.1662 61.0348 35.0023C61.7043 34.8346 62.3628 34.6087 62.9914 34.3245C63.6201 34.0293 64.2265 33.6832 64.7882 33.2969C65.3685 32.8961 65.9265 32.4625 66.4436 32.007L66.7523 31.7373L69.0438 34.8492H69.8287V12.1331C69.825 10.8177 68.7351 9.75 67.3921 9.75ZM64.4869 26.6468C64.1856 27.3756 63.7652 28.0351 63.237 28.6109C62.705 29.1757 62.0689 29.6384 61.3547 29.9919C60.6367 30.3344 59.863 30.5093 59.0483 30.5093C58.2373 30.5093 57.4562 30.3417 56.7308 30.0174C56.024 29.6931 55.3953 29.2412 54.8596 28.6764C54.3388 28.1116 53.9259 27.4484 53.6246 26.7051C53.3233 25.9581 53.1708 25.1601 53.1708 24.3329C53.1708 23.3855 53.3233 22.5219 53.6246 21.764C53.9259 21.0024 54.3463 20.3501 54.8671 19.8254C55.4027 19.2861 56.0351 18.8671 56.7456 18.5828C57.4673 18.2986 58.2411 18.1565 59.0483 18.1565C59.8667 18.1565 60.6442 18.3387 61.3584 18.6958C62.0726 19.031 62.705 19.4938 63.2407 20.0732C63.7689 20.6343 64.193 21.2975 64.4943 22.0409C64.8105 22.7697 64.9705 23.5422 64.9705 24.3329C64.963 25.12 64.8031 25.8998 64.4869 26.6468Z" fill="black"/>
<path d="M26.2076 21.5118C26.1765 29.2275 22.885 37.1932 16.0847 40.8168C11.3028 43.3783 0 45.3462 0 37.0058C0 37.0058 0 5.98661 0 5.95537C0 1.33217 3.88145 -0.198482 7.7629 0.0201831C13.5385 0.332561 19.0657 3.05026 22.4193 8.04831C24.5618 11.2346 25.7418 15.0768 26.1144 18.9503C26.1455 19.825 26.2076 20.6684 26.2076 21.5118Z" fill="#7047EB"/>
<path d="M36.9201 18.7939C36.2681 12.4214 32.3866 7.07972 27.0147 3.86223C23.4437 1.70682 18.9723 1.17578 16.6434 5.4866C16.6434 5.51783 0.962367 34.5065 0.962367 34.5065C-0.403904 37.0368 -0.0933863 39.1297 1.14868 40.8478C3.01178 43.4093 6.70691 44.5651 9.71892 44.8775C12.5136 45.1899 15.3393 44.8775 18.0408 44.2527C26.2073 42.3785 33.4423 36.7869 35.8954 28.6651C36.858 25.4788 37.2617 22.1364 36.9201 18.7939Z" fill="#FF7D92"/>
<path d="M16.0846 40.8478C22.8849 37.193 26.1764 29.2274 26.2074 21.5429C26.2074 20.6995 26.1764 19.856 26.0832 19.0126C25.7416 15.1391 24.5306 11.2969 22.3881 8.11062C21.2081 6.33006 19.7487 4.86189 18.1029 3.64362C17.5751 4.11218 17.0783 4.73694 16.6746 5.51788C16.6746 5.54912 0.993516 34.5378 0.993516 34.5378C-0.0311875 36.4121 -0.0932965 38.0677 0.434581 39.5046C0.434581 39.5359 0.465634 39.5671 0.465634 39.5983C0.496686 39.6608 0.527734 39.7545 0.558785 39.817C0.589837 39.8795 0.589841 39.9107 0.620893 39.9732C0.620893 40.0044 0.651946 40.0357 0.651946 40.0357C3.10502 44.7838 11.9858 43.0345 16.0846 40.8478Z" fill="#E23B7B"/>
</svg>
