<svg width="199" height="46" viewBox="0 0 199 46" fill="none" xmlns="http://www.w3.org/2000/svg">
<path fill-rule="evenodd" clip-rule="evenodd" d="M9.86325 3.69025H62.6187C63.4116 3.69025 64.1967 3.84673 64.9293 4.15075C65.6618 4.45477 66.3273 4.90038 66.8879 5.46211C67.4485 6.02385 67.893 6.6907 68.1962 7.42459C68.4994 8.15847 68.6553 8.945 68.655 9.73925V29.9C68.655 30.6939 68.4988 31.4801 68.1955 32.2135C67.8921 32.947 67.4474 33.6133 66.8868 34.1746C66.3263 34.7359 65.6608 35.181 64.9285 35.4846C64.1961 35.7882 63.4112 35.9442 62.6187 35.9439H43.6984L46.2879 42.32L34.8582 35.9439H9.8556C8.25643 35.9419 6.72342 35.3043 5.59311 34.1711C4.46281 33.038 3.82759 31.5019 3.82692 29.9V9.73925C3.82692 8.1354 4.46281 6.5972 5.59477 5.46286C6.72672 4.32853 8.26208 3.69092 9.86325 3.69025Z" fill="#7D57A4"/>
<path d="M7.09001 9.16677C7.28967 8.91683 7.54167 8.71382 7.8282 8.57208C8.11474 8.43034 8.42885 8.35331 8.74835 8.34644C10.0937 8.25274 10.8659 8.88822 11.0649 10.2529C11.8949 15.7882 12.7836 20.487 13.731 24.3493L19.5377 13.2889C20.0633 12.2905 20.7275 11.7624 21.5303 11.7044C22.6937 11.6227 23.4208 12.3646 23.7116 13.9303C24.2581 17.0265 25.0979 20.0634 26.2195 23C26.9169 16.2636 28.0811 11.3935 29.7122 8.38989C29.8696 8.05301 30.1158 7.76551 30.4242 7.55837C30.7326 7.35122 31.0915 7.23227 31.4624 7.21433C32.0663 7.16461 32.6657 7.35253 33.1335 7.73822C33.3723 7.9188 33.5685 8.14976 33.7082 8.41473C33.848 8.67971 33.9279 8.97222 33.9423 9.27155C33.985 9.71336 33.8962 10.158 33.6871 10.5493C32.653 12.4711 31.8026 15.6664 31.1358 20.1352C30.4776 24.449 30.2344 27.8232 30.4062 30.2578C30.4665 30.8545 30.3596 31.4563 30.0975 31.9955C29.9703 32.2677 29.772 32.5005 29.5237 32.6692C29.2753 32.8378 28.9861 32.9362 28.6866 32.9539C27.9876 33.005 27.2911 32.6753 26.5895 31.97C24.1266 29.44 22.1706 25.6757 20.7215 20.677C19.0207 24.0844 17.745 26.6331 16.8946 28.3232C15.3383 31.3217 14.0048 32.8593 12.8942 32.936C12.173 32.9871 11.559 32.3806 11.0522 31.1164C9.69147 27.646 8.23214 20.9317 6.67415 10.9736C6.61258 10.66 6.6178 10.337 6.68946 10.0257C6.76112 9.71432 6.89762 9.42164 7.09001 9.16677Z" fill="white"/>
<path d="M64.0372 13.3374C63.5994 12.5461 62.993 11.861 62.2611 11.331C61.5291 10.801 60.6895 10.439 59.802 10.2708C59.3289 10.1706 58.8467 10.1192 58.3631 10.1174C55.8255 10.1174 53.7521 11.4404 52.1431 14.0862C50.7729 16.3362 50.0597 18.9258 50.0842 21.5612C50.0842 23.6057 50.5094 25.3579 51.3599 26.818C51.7972 27.6102 52.4038 28.2959 53.1363 28.826C53.8689 29.3562 54.7093 29.7176 55.5975 29.8847C56.0695 29.987 56.551 30.0393 57.0339 30.0405C59.5971 30.0405 61.6696 28.7176 63.2514 26.0718C64.6215 23.8057 65.3352 21.2025 65.3128 18.5533C65.3128 16.5089 64.8876 14.7702 64.0372 13.3374ZM60.695 20.7C60.3327 22.4378 59.6609 23.7471 58.6795 24.6279C57.9022 25.3281 57.1895 25.6135 56.5415 25.484C55.8935 25.3545 55.3739 24.7821 54.9827 23.7667C54.6829 22.9964 54.5248 22.1783 54.5158 21.3517C54.5133 20.6976 54.5783 20.045 54.7097 19.4043C54.9623 18.2706 55.4375 17.1986 56.1078 16.2508C56.9888 14.9542 57.909 14.4099 58.8683 14.6178C59.5163 14.749 60.0351 15.3197 60.4246 16.33C60.7233 17.0995 60.8806 17.9168 60.8889 18.7424C60.8922 19.3999 60.8272 20.056 60.695 20.7Z" fill="white"/>
<path d="M47.4334 13.3374C46.9957 12.5461 46.3893 11.861 45.6573 11.331C44.9253 10.801 44.0858 10.439 43.1983 10.2708C42.7252 10.1706 42.243 10.1192 41.7594 10.1174C39.22 10.1174 37.1475 11.4404 35.5419 14.0862C34.1698 16.3355 33.4556 18.9254 33.4805 21.5612C33.4805 23.6057 33.9057 25.3579 34.7561 26.818C35.1927 27.6108 35.7991 28.2969 36.5318 28.8271C37.2645 29.3573 38.1053 29.7185 38.9938 29.8847C39.4658 29.987 39.9472 30.0393 40.4302 30.0405C42.9951 30.0405 45.0684 28.7176 46.6502 26.0718C48.025 23.8069 48.7449 21.204 48.7295 18.5533C48.7295 16.5089 48.3043 14.7702 47.4538 13.3374H47.4334ZM44.0913 20.7C43.729 22.4412 43.0554 23.7522 42.0706 24.633C41.2916 25.3332 40.579 25.6186 39.9327 25.4891C39.2863 25.3596 38.7684 24.7855 38.3789 23.7667C38.0792 22.9964 37.921 22.1783 37.9121 21.3517C37.9096 20.6976 37.9745 20.045 38.1059 19.4043C38.3607 18.2714 38.8358 17.1998 39.504 16.2508C40.3817 14.9577 41.3019 14.415 42.2645 14.6229C42.9126 14.7541 43.4305 15.3248 43.8183 16.3351C44.1178 17.1045 44.2759 17.9218 44.2852 18.7475C44.2878 19.4016 44.2228 20.0542 44.0913 20.6949V20.7Z" fill="white"/>
<path d="M75.3572 13.11C73.5934 14.8665 72.7115 17.0924 72.7115 19.7877C72.7115 22.6959 73.5858 25.0445 75.3343 26.8334C77.0827 28.6222 79.3695 29.5133 82.1947 29.5065C83.1305 29.4836 84.0594 29.3384 84.9577 29.0746V24.7889C84.1761 25.0368 83.3637 25.1736 82.5442 25.1952C81.141 25.1952 80.0184 24.7233 79.1765 23.7795C78.3346 22.8356 77.9145 21.5536 77.9162 19.9334C77.9162 18.429 78.3337 17.1887 79.1688 16.2125C79.5503 15.7463 80.0321 15.3726 80.5782 15.1194C81.1243 14.8663 81.7206 14.7402 82.3222 14.7507C83.2141 14.757 84.1009 14.886 84.9577 15.134V10.8279C84.0124 10.5869 83.04 10.4693 82.0645 10.4778C79.3619 10.4778 77.1261 11.3552 75.3572 13.11ZM93.7469 10.4778C91.3027 10.4778 89.3935 11.2922 88.0192 12.9209C86.6449 14.5496 85.9646 16.8207 85.9782 19.734C85.9782 22.8927 86.6586 25.3085 88.0192 26.9816C89.3799 28.6546 91.358 29.492 93.9535 29.4937C96.4623 29.4937 98.3945 28.6563 99.75 26.9816C101.106 25.3068 101.788 22.9574 101.796 19.9334C101.796 16.9025 101.107 14.5701 99.7296 12.9362C98.3519 11.3024 96.3577 10.4829 93.7469 10.4778ZM95.8466 24.2778C95.6277 24.635 95.3179 24.9274 94.9489 25.1251C94.5799 25.3227 94.165 25.4183 93.7469 25.4022C93.3513 25.414 92.9602 25.315 92.6177 25.1164C92.2751 24.9177 91.9947 24.6273 91.8079 24.2778C91.364 23.5316 91.142 22.0383 91.142 19.7979C91.142 16.3104 92.0205 14.5667 93.7775 14.5667C95.6484 14.5667 96.5839 16.3309 96.5839 19.8592C96.5788 22.0502 96.333 23.5231 95.8466 24.2778ZM114.902 10.9889L113.953 15.0471C113.706 16.0864 113.476 17.1512 113.262 18.2416L112.731 21.0527C112.221 18.2467 111.529 14.8946 110.657 10.9966H104.495L102.181 29.0644H106.797L108.052 16.6137L111.203 29.0644H114.502L117.507 16.6111L118.811 29.0362H123.635L121.186 10.9889H114.902ZM136.976 10.9889L136.027 15.0471C135.78 16.0864 135.55 17.1512 135.335 18.2416L134.805 21.0527C134.294 18.2467 133.602 14.8946 132.728 10.9966H126.569L124.247 29.0465H128.863L130.115 16.5958L133.269 29.0465H136.565L139.581 16.6111L140.884 29.0362H145.709L143.265 10.9889H136.976ZM151.954 21.9011H156.292V18.1445H151.954V14.8222H156.94V10.9889H147.081V29.0567H156.973V25.1901H151.954V21.9011ZM170.699 19.0517C171.36 17.9998 171.6 16.7365 171.37 15.515C171.14 14.2935 170.457 13.2044 169.459 12.466C168.13 11.4813 166.319 10.9889 164.024 10.9889H158.345V29.0567H163.221V20.8176H163.3L167.239 29.0465H172.388L168.494 20.8994C169.404 20.5292 170.175 19.8831 170.699 19.0517ZM163.221 18.7604V14.4696C164.376 14.4968 165.203 14.6911 165.703 15.0522C166.203 15.4134 166.453 16.0097 166.453 16.8411C166.453 18.0848 165.376 18.7246 163.221 18.7604ZM174.339 13.11C172.57 14.8665 171.686 17.0924 171.686 19.7877C171.686 22.6959 172.562 25.0402 174.314 26.8206C176.066 28.6009 178.352 29.492 181.174 29.4937C182.113 29.4759 183.045 29.335 183.947 29.0746V24.7889C183.166 25.0368 182.353 25.1736 181.534 25.1952C180.129 25.1952 179.006 24.7233 178.164 23.7795C177.322 22.8356 176.899 21.5536 176.896 19.9334C176.896 18.429 177.314 17.1887 178.151 16.2125C178.532 15.7463 179.014 15.3726 179.56 15.1194C180.106 14.8663 180.703 14.7402 181.304 14.7507C182.199 14.7565 183.088 14.8855 183.947 15.134V10.8279C183 10.5863 182.025 10.4686 181.047 10.4778C178.344 10.4778 176.108 11.3552 174.339 13.11ZM190.157 25.1901V21.9011H194.494V18.1445H190.157V14.8222H195.142V10.9889H185.282V29.0567H195.173V25.1901H190.157Z" fill="black"/>
</svg>
